<svg width="32" height="32" viewBox="0 0 32 32" fill="none" xmlns="http://www.w3.org/2000/svg">
<path d="M7.70745 4.70751L3.70745 8.70751C3.51981 8.89515 3.26531 9.00056 2.99995 9.00056C2.73458 9.00056 2.48009 8.89515 2.29245 8.70751C2.10481 8.51987 1.99939 8.26537 1.99939 8.00001C1.99939 7.73464 2.10481 7.48015 2.29245 7.29251L6.29245 3.29251C6.48009 3.10487 6.73458 2.99945 6.99995 2.99945C7.26531 2.99945 7.5198 3.10487 7.70745 3.29251C7.89509 3.48015 8.0005 3.73464 8.0005 4.00001C8.0005 4.26537 7.89509 4.51987 7.70745 4.70751ZM29.7074 7.29251L25.7074 3.29251C25.5198 3.10487 25.2653 2.99945 24.9999 2.99945C24.7346 2.99945 24.4801 3.10487 24.2924 3.29251C24.1048 3.48015 23.9994 3.73464 23.9994 4.00001C23.9994 4.26537 24.1048 4.51987 24.2924 4.70751L28.2924 8.70751C28.3854 8.80042 28.4957 8.87412 28.6171 8.9244C28.7384 8.97468 28.8686 9.00056 28.9999 9.00056C29.1313 9.00056 29.2614 8.97468 29.3828 8.9244C29.5042 8.87412 29.6145 8.80042 29.7074 8.70751C29.8004 8.6146 29.8741 8.5043 29.9243 8.3829C29.9746 8.26151 30.0005 8.1314 30.0005 8.00001C30.0005 7.86861 29.9746 7.7385 29.9243 7.61711C29.8741 7.49572 29.8004 7.38542 29.7074 7.29251ZM27.9999 17C27.9999 19.3734 27.2962 21.6935 25.9776 23.6668C24.659 25.6402 22.7849 27.1783 20.5921 28.0866C18.3994 28.9948 15.9866 29.2324 13.6589 28.7694C11.3311 28.3064 9.19289 27.1635 7.51466 25.4853C5.83643 23.8071 4.69354 21.6689 4.23052 19.3411C3.7675 17.0133 4.00514 14.6005 4.91339 12.4078C5.82164 10.2151 7.35971 8.34095 9.3331 7.02237C11.3065 5.70379 13.6266 5.00001 15.9999 5.00001C19.1814 5.00365 22.2316 6.2691 24.4812 8.51874C26.7309 10.7684 27.9963 13.8185 27.9999 17ZM23.9999 17C23.9999 16.7348 23.8946 16.4804 23.7071 16.2929C23.5195 16.1054 23.2652 16 22.9999 16H16.9999V10C16.9999 9.73479 16.8946 9.48044 16.7071 9.2929C16.5195 9.10536 16.2652 9.00001 15.9999 9.00001C15.7347 9.00001 15.4804 9.10536 15.2928 9.2929C15.1053 9.48044 14.9999 9.73479 14.9999 10V17C14.9999 17.2652 15.1053 17.5196 15.2928 17.7071C15.4804 17.8946 15.7347 18 15.9999 18H22.9999C23.2652 18 23.5195 17.8946 23.7071 17.7071C23.8946 17.5196 23.9999 17.2652 23.9999 17Z" fill="black"/>
</svg>
