<svg width="32" height="32" viewBox="0 0 32 32" fill="none" xmlns="http://www.w3.org/2000/svg">
<path d="M16 5.24997C13.6761 5.24997 11.4044 5.9391 9.47208 7.2302C7.5398 8.52131 6.03378 10.3564 5.14445 12.5034C4.25512 14.6505 4.02243 17.013 4.4758 19.2923C4.92918 21.5716 6.04826 23.6652 7.69153 25.3085C9.33479 26.9517 11.4284 28.0708 13.7077 28.5242C15.987 28.9776 18.3495 28.7449 20.4966 27.8556C22.6436 26.9662 24.4787 25.4602 25.7698 23.5279C27.0609 21.5956 27.75 19.3239 27.75 17C27.7464 13.8848 26.5073 10.8982 24.3045 8.69549C22.1018 6.49272 19.1152 5.25361 16 5.24997ZM16 27.25C13.9728 27.25 11.991 26.6488 10.3054 25.5225C8.61983 24.3963 7.30606 22.7954 6.53027 20.9225C5.75447 19.0495 5.55148 16.9886 5.94698 15.0003C6.34248 13.012 7.3187 11.1856 8.75219 9.75213C10.1857 8.31864 12.0121 7.34242 14.0004 6.94692C15.9887 6.55142 18.0496 6.75441 19.9225 7.53021C21.7955 8.306 23.3963 9.61977 24.5226 11.3054C25.6489 12.991 26.25 14.9727 26.25 17C26.2467 19.7174 25.1658 22.3226 23.2442 24.2442C21.3227 26.1657 18.7175 27.2467 16 27.25ZM7.53003 4.52997L3.53003 8.52997C3.46137 8.60366 3.37857 8.66276 3.28657 8.70375C3.19457 8.74474 3.09526 8.76679 2.99455 8.76856C2.89385 8.77034 2.79382 8.75181 2.70043 8.71409C2.60705 8.67637 2.52221 8.62023 2.45099 8.54901C2.37977 8.47779 2.32363 8.39296 2.28591 8.29957C2.24819 8.20618 2.22966 8.10615 2.23144 8.00545C2.23322 7.90475 2.25526 7.80543 2.29625 7.71343C2.33724 7.62143 2.39634 7.53863 2.47003 7.46997L6.47003 3.46997C6.53869 3.39628 6.62149 3.33718 6.71349 3.29619C6.80549 3.2552 6.90481 3.23316 7.00551 3.23138C7.10621 3.2296 7.20624 3.24813 7.29963 3.28585C7.39302 3.32357 7.47785 3.37971 7.54907 3.45093C7.62029 3.52215 7.67643 3.60698 7.71415 3.70037C7.75188 3.79376 7.7704 3.89379 7.76862 3.99449C7.76685 4.0952 7.7448 4.19451 7.70381 4.28651C7.66282 4.37851 7.60372 4.46131 7.53003 4.52997ZM29.53 8.52997C29.3894 8.67042 29.1988 8.74931 29 8.74931C28.8013 8.74931 28.6107 8.67042 28.47 8.52997L24.47 4.52997C24.3376 4.3878 24.2654 4.19975 24.2689 4.00545C24.2723 3.81115 24.351 3.62576 24.4884 3.48835C24.6258 3.35094 24.8112 3.27222 25.0055 3.2688C25.1998 3.26537 25.3879 3.33749 25.53 3.46997L29.53 7.46997C29.6705 7.6106 29.7494 7.80122 29.7494 7.99997C29.7494 8.19872 29.6705 8.38934 29.53 8.52997ZM23 16.25C23.1989 16.25 23.3897 16.329 23.5304 16.4696C23.671 16.6103 23.75 16.8011 23.75 17C23.75 17.1989 23.671 17.3896 23.5304 17.5303C23.3897 17.671 23.1989 17.75 23 17.75H16C15.8011 17.75 15.6104 17.671 15.4697 17.5303C15.329 17.3896 15.25 17.1989 15.25 17V9.99997C15.25 9.80106 15.329 9.61029 15.4697 9.46964C15.6104 9.32899 15.8011 9.24997 16 9.24997C16.1989 9.24997 16.3897 9.32899 16.5304 9.46964C16.671 9.61029 16.75 9.80106 16.75 9.99997V16.25H23Z" fill="black" fill-opacity="0.5"/>
</svg>
