<svg width="1477" height="1477" viewBox="0 0 1477 1477" fill="none" xmlns="http://www.w3.org/2000/svg">
<path fill-rule="evenodd" clip-rule="evenodd" d="M287.187 216.428C378.271 155.567 485.357 123.083 594.903 123.083C741.752 123.238 882.542 181.642 986.38 285.48C1035.21 334.308 1073.99 391.306 1101.39 453.263C1073.85 454.511 1056.22 465.749 1024.16 488.849C1013.16 463.759 999.941 439.568 984.582 416.582C933.085 339.511 859.89 279.441 774.253 243.969C688.616 208.497 594.383 199.216 503.471 217.3C412.559 235.383 329.052 280.019 263.508 345.563C197.964 411.107 153.328 494.614 135.245 585.526C117.161 676.438 126.442 770.671 161.914 856.308C197.386 941.945 257.456 1015.14 334.528 1066.64C358.793 1082.85 384.401 1096.68 410.993 1108.03C407.114 1149.83 411.309 1170.84 427.695 1204.99C343.313 1178.27 266.26 1131.61 203.254 1068.61C125.793 991.146 73.042 892.455 51.6706 785.014C30.2992 677.572 41.2678 566.207 83.1893 464.999C125.111 363.792 196.102 277.288 287.187 216.428ZM845.714 634.352L741.209 718.76L594.903 719.564C583.603 719.564 572.766 715.075 564.776 707.085C556.786 699.095 552.297 688.258 552.297 676.958V378.718C552.297 367.418 556.786 356.581 564.776 348.591C572.766 340.601 583.603 336.112 594.903 336.112C606.203 336.112 617.04 340.601 625.03 348.591C633.02 356.581 637.509 367.418 637.509 378.718V634.352H845.714Z" fill="#46845E"/>
<path d="M1356.95 566.719C1317.29 517.892 1259.85 486.82 1197.28 480.336C1134.71 473.853 1072.13 492.489 1023.3 532.146L527.112 935.11C479.19 975.053 448.935 1032.27 442.901 1094.36C436.867 1156.45 455.541 1218.42 494.877 1266.84C534.212 1315.27 591.042 1346.24 653.055 1353.06C715.068 1359.88 777.27 1341.99 826.186 1303.27L1322.42 900.311C1371.18 860.612 1402.2 803.194 1408.67 740.654C1415.14 678.114 1396.54 615.561 1356.95 566.719ZM1277.47 845.017L1056.95 1024.04L847.783 766.467L1068.26 587.44C1102.48 560.306 1146.01 547.755 1189.42 552.51C1232.84 557.265 1272.62 578.942 1300.16 612.84C1327.69 646.739 1340.75 690.125 1336.5 733.589C1332.26 777.053 1311.05 817.09 1277.47 845.017Z" fill="#46845E"/>
</svg>
